<?xml version="1.0" standalone="no"?>
<!DOCTYPE svg PUBLIC "-//W3C//DTD SVG 20010904//EN"
 "http://www.w3.org/TR/2001/REC-SVG-20010904/DTD/svg10.dtd">
<svg version="1.0" xmlns="http://www.w3.org/2000/svg"
 width="300.000000pt" height="300.000000pt" viewBox="0 0 300.000000 300.000000"
 preserveAspectRatio="xMidYMid meet">
<metadata>
Created by potrace 1.14, written by Peter Selinger 2001-2017
</metadata>
<g transform="translate(0.000000,300.000000) scale(0.100000,-0.100000)"
fill="#000000" stroke="none">
<path d="M125 2447 c-4 -13 -5 -138 -3 -278 3 -239 4 -256 25 -295 25 -48 83
-101 129 -120 52 -22 141 -18 199 10 61 28 87 56 117 121 21 47 22 67 26 296
5 271 1 293 -46 287 l-27 -3 -5 -228 c-4 -181 -8 -230 -19 -236 -38 -24 -41
-7 -41 224 0 239 -2 250 -52 243 l-23 -3 -5 -230 c-3 -126 -7 -231 -8 -233 -1
-2 -12 -2 -24 0 -23 3 -23 3 -26 222 -1 146 -6 224 -14 233 -6 8 -23 13 -37
11 l-26 -3 -5 -230 -5 -230 -25 0 -25 0 -5 230 -5 230 -32 3 c-27 3 -33 -1
-38 -21z m227 -525 c15 -2 41 1 58 6 23 8 38 8 65 -4 19 -8 35 -18 35 -22 0
-14 -54 -60 -83 -71 -65 -25 -147 -5 -185 44 -28 35 -28 45 1 45 12 0 29 5 37
10 8 5 22 7 30 3 8 -3 27 -8 42 -11z"/>
<path d="M1395 2465 c-5 -2 -43 -11 -84 -20 -209 -48 -411 -180 -543 -355 -67
-87 -143 -246 -168 -350 -154 -635 343 -1231 999 -1197 168 9 341 64 476 152
87 56 253 227 302 310 99 169 137 310 136 505 0 112 -5 152 -26 234 -95 356
-365 619 -728 706 -64 15 -116 20 -219 19 -74 0 -139 -2 -145 -4z m248 -75
c150 -17 391 -110 371 -142 -4 -7 -29 -41 -56 -77 -66 -88 -106 -173 -119
-251 -15 -98 -53 -173 -116 -230 -68 -62 -133 -83 -327 -105 -209 -23 -240
-47 -303 -242 -49 -152 -72 -189 -140 -220 -41 -19 -73 -26 -127 -27 l-71 -1
-28 58 c-52 106 -70 197 -71 352 0 114 3 155 21 220 107 392 441 658 848 674
17 0 70 -4 118 -9z m524 -248 c105 -103 198 -254 231 -374 10 -36 9 -37 -9
-27 -11 6 -50 13 -87 16 -142 11 -298 -52 -405 -166 -78 -83 -107 -130 -96
-157 10 -27 89 -97 170 -150 125 -81 246 -103 359 -64 30 10 57 17 59 14 2 -2
-8 -33 -24 -69 -165 -390 -587 -611 -1000 -526 -186 38 -340 125 -474 266 -44
48 -81 90 -81 94 0 5 32 13 71 20 116 19 191 68 234 152 9 15 31 78 51 139 38
120 67 163 117 179 18 5 93 17 168 25 80 9 161 24 195 37 148 55 236 167 270
347 8 42 24 95 35 117 26 50 130 195 140 195 4 0 38 -31 76 -68z m264 -587 c2
-44 2 -102 1 -129 l-2 -49 -22 20 c-13 12 -48 37 -78 57 -30 20 -49 36 -43 36
22 0 92 100 110 157 l18 56 7 -34 c4 -19 8 -70 9 -114z m-111 113 c0 -23 -37
-75 -78 -109 l-41 -34 -131 0 -132 0 46 42 c50 44 130 87 193 102 60 14 143
13 143 -1z m-77 -261 c40 -20 83 -47 95 -60 l23 -24 -38 -19 c-61 -31 -173
-26 -246 9 -70 35 -162 106 -150 117 13 14 63 18 156 15 78 -2 97 -7 160 -38z"/>
<path d="M1427 2198 c-9 -7 -23 -30 -32 -50 l-15 -37 -35 14 c-46 20 -52 19
-80 -10 -29 -28 -34 -89 -11 -133 19 -35 83 -96 124 -116 51 -26 129 -38 173
-26 41 11 89 60 89 91 0 21 -36 63 -60 71 -11 3 -9 12 8 40 29 46 28 89 0 115
-53 48 -126 67 -161 41z m86 -83 c18 -13 18 -16 -12 -59 -40 -58 -39 -79 4
-106 62 -38 19 -54 -67 -24 -47 15 -118 77 -118 101 0 16 0 16 43 -2 20 -8 42
-12 51 -9 8 3 24 30 36 60 23 56 33 63 63 39z"/>
<path d="M954 1840 c-94 -29 -184 -126 -191 -207 -5 -42 -1 -53 22 -81 31 -37
48 -39 91 -13 l31 19 32 -44 c25 -36 36 -44 61 -44 40 0 81 22 114 60 33 40
33 64 -1 112 l-26 39 28 29 c58 60 18 131 -77 136 -29 2 -67 -1 -84 -6z m86
-78 c0 -5 -13 -18 -30 -30 -39 -29 -37 -48 10 -101 40 -47 41 -54 10 -71 -17
-9 -24 -3 -54 45 -20 30 -43 55 -52 55 -9 0 -29 -9 -46 -21 -36 -26 -45 -19
-28 21 14 34 60 77 105 96 34 15 85 18 85 6z"/>
<path d="M1620 1365 c-26 -32 13 -81 48 -59 34 22 22 74 -18 74 -10 0 -23 -7
-30 -15z"/>
<path d="M1700 1140 c-16 -16 -18 -25 -10 -39 20 -39 70 -29 70 14 0 37 -34
51 -60 25z"/>
<path d="M1416 1117 c-36 -26 4 -84 42 -61 23 15 26 38 7 58 -20 19 -26 20
-49 3z"/>
<path d="M1761 946 c-7 -8 -10 -24 -6 -35 14 -45 79 -30 73 17 -2 21 -9 28
-29 30 -14 2 -31 -4 -38 -12z"/>
<path d="M1282 808 c-25 -25 -6 -68 30 -68 9 0 22 9 28 20 22 40 -26 80 -58
48z"/>
<path d="M2654 2460 c-31 -12 -72 -65 -84 -108 -6 -22 -10 -170 -10 -365 0
-315 1 -328 20 -344 16 -14 20 -30 20 -75 0 -64 16 -88 58 -88 26 0 26 -1 -8
-19 -19 -10 -44 -34 -55 -52 -19 -32 -20 -52 -20 -406 0 -360 1 -372 21 -399
37 -50 70 -68 123 -67 62 0 107 30 133 90 19 43 19 61 13 401 -6 328 -8 360
-26 388 -10 17 -34 39 -52 48 -31 15 -31 16 -6 16 38 0 49 18 49 85 0 49 4 62
20 73 20 12 20 21 18 420 l-3 407 -95 2 c-52 1 -104 -2 -116 -7z m139 -72 c-2
-5 -3 -159 -3 -343 l0 -336 -72 3 -73 3 -2 305 c-3 327 -1 343 47 367 26 14
107 14 103 1z m-43 -793 c0 -32 -2 -35 -30 -35 -28 0 -30 3 -30 35 0 32 2 35
30 35 28 0 30 -3 30 -35z m10 -215 c19 -19 20 -33 20 -342 0 -277 -6 -390 -22
-402 -1 -2 -15 -6 -30 -10 -21 -5 -33 -1 -48 14 -19 19 -20 32 -20 374 l0 355
22 15 c30 21 54 20 78 -4z"/>
<path d="M300 1673 c-19 -10 -43 -34 -55 -53 -19 -34 -20 -53 -23 -500 -3
-520 -5 -510 67 -557 66 -45 171 -20 206 47 22 42 22 957 1 998 -38 74 -124
102 -196 65z m112 -80 c17 -15 18 -43 18 -475 0 -445 -1 -459 -20 -478 -24
-24 -57 -26 -82 -3 -17 15 -18 43 -18 476 0 414 2 462 17 479 20 22 61 23 85
1z"/>
<path d="M2410 605 c0 -22 4 -34 10 -30 6 3 10 17 10 30 0 13 -4 27 -10 30 -6
4 -10 -8 -10 -30z"/>
<path d="M2755 249 c-4 -6 -5 -12 -2 -15 2 -3 7 2 10 11 7 17 1 20 -8 4z"/>
<path d="M2705 230 c3 -5 8 -10 11 -10 2 0 4 5 4 10 0 6 -5 10 -11 10 -5 0 -7
-4 -4 -10z"/>
<path d="M2694 158 c1 -7 5 -19 10 -26 6 -9 1 -11 -18 -8 -15 3 -24 1 -21 -5
4 -5 10 -7 15 -4 5 3 11 1 15 -5 3 -6 -4 -10 -17 -11 -22 0 -22 -1 -3 -9 19
-8 19 -9 1 -9 -14 -1 -16 -4 -7 -15 6 -7 8 -21 5 -31 -5 -13 -9 -14 -15 -3 -6
9 -9 9 -9 1 0 -6 -9 -10 -20 -8 -12 2 -18 0 -14 -6 3 -6 9 -8 12 -5 3 3 11 1
18 -5 10 -8 16 -5 26 10 8 14 16 17 24 10 8 -6 16 -3 25 8 13 17 13 17 -5 3
-18 -14 -19 -13 -13 3 4 10 3 16 -2 12 -5 -3 -13 0 -16 6 -4 6 2 13 15 16 14
4 18 8 10 13 -8 5 -7 11 4 23 14 13 14 16 0 21 -8 3 -13 10 -9 15 3 5 1 12 -4
15 -5 4 -8 0 -7 -6z"/>
<path d="M2823 155 c0 -8 4 -15 9 -15 4 0 8 4 8 9 0 6 -4 12 -8 15 -5 3 -9 -1
-9 -9z"/>
<path d="M2472 133 c-1 -12 3 -25 8 -28 6 -3 10 -11 10 -16 0 -6 -5 -7 -12 -3
-7 5 -8 3 -3 -5 5 -8 11 -9 17 -3 6 6 5 17 -3 31 -16 25 -2 46 21 30 13 -9 12
-10 -2 -5 -18 5 -24 -5 -11 -17 8 -9 43 22 43 37 0 6 -5 4 -10 -4 -5 -8 -10
-10 -10 -4 0 5 -10 10 -23 10 -17 0 -23 -6 -25 -23z"/>
<path d="M2591 126 c-9 -11 -9 -16 1 -22 7 -4 10 -4 6 1 -4 4 -3 14 3 22 6 7
9 13 6 13 -2 0 -10 -6 -16 -14z"/>
<path d="M2640 95 c-1 -11 -4 -14 -7 -8 -3 10 -8 10 -19 -1 -16 -17 -19 -30
-4 -21 6 3 10 0 10 -7 0 -7 7 -2 16 10 8 12 13 28 11 35 -3 6 -6 3 -7 -8z"/>
<path d="M252 77 c4 -30 28 -34 28 -4 0 15 -6 24 -15 24 -10 0 -15 -8 -13 -20z"/>
<path d="M2511 93 c1 -4 1 -19 0 -32 -1 -18 -4 -21 -14 -13 -10 8 -13 5 -15
-14 -1 -15 3 -24 13 -24 8 0 15 8 15 17 0 15 2 14 14 -3 9 -13 24 -20 38 -18
13 1 26 3 31 3 9 1 9 33 -2 49 -4 7 -17 14 -28 15 -14 1 -19 6 -16 17 3 9 0 8
-7 -4 -9 -14 -9 -24 -1 -43 15 -32 7 -42 -9 -13 -7 12 -10 31 -7 41 3 10 1 22
-4 25 -5 3 -9 2 -8 -3z m49 -45 c0 -10 3 -9 9 1 6 9 11 10 15 2 4 -6 5 -11 2
-11 -2 0 -11 -3 -19 -6 -8 -3 -17 2 -20 10 -4 9 -2 16 3 16 6 0 10 -6 10 -12z"/>
<path d="M2560 89 c0 -5 5 -7 10 -4 6 3 10 8 10 11 0 2 -4 4 -10 4 -5 0 -10
-5 -10 -11z"/>
<path d="M2990 90 c0 -5 1 -11 3 -13 1 -2 -6 -12 -17 -22 -18 -18 -18 -19 0
-33 17 -13 17 -14 -11 -8 -22 5 -26 4 -15 -4 34 -23 47 -12 49 40 0 28 -2 50
-4 50 -3 0 -5 -4 -5 -10z"/>
<path d="M2893 51 c0 -11 5 -18 9 -15 4 3 5 11 1 19 -7 21 -12 19 -10 -4z"/>
<path d="M2352 40 c0 -14 2 -19 5 -12 2 6 2 18 0 25 -3 6 -5 1 -5 -13z"/>
<path d="M0 39 c0 -5 5 -7 10 -4 5 3 10 8 10 11 0 2 -4 4 -10 4 -5 0 -10 -5
-10 -11z"/>
<path d="M19 23 c-13 -16 -12 -17 4 -4 9 7 17 15 17 17 0 8 -8 3 -21 -13z"/>
<path d="M2911 26 c-7 -8 -8 -17 -3 -20 6 -3 12 3 15 14 6 24 4 25 -12 6z"/>
</g>
</svg>
